{
  "accessors": [
    {
      "bufferView": 2,
      "componentType": 5126,
      "count": 5702,
      "max": [
        6.211302757263184,
        13.086697578430176,
        10.82827377319336
      ],
      "min": [
        -6.2113037109375,
        -9.360532760620117,
        -22.575368881225586
      ],
      "type": "VEC3"
    },
    {
      "bufferView": 2,
      "byteOffset": 68424,
      "componentType": 5126,
      "count": 5702,
      "max": [
        0.9999680519104004,
        0.9999613761901855,
        0.9999567270278931
      ],
      "min": [
        -0.9999680519104004,
        -0.9999586343765259,
        -0.9989178776741028
      ],
      "type": "VEC3"
    },
    {
      "bufferView": 1,
      "componentType": 5126,
      "count": 5702,
      "max": [
        0.9916521310806274,
        0.9884954690933228
      ],
      "min": [
        0.0062887719832360744,
        0.006041490938514471
      ],
      "type": "VEC2"
    },
    {
      "bufferView": 0,
      "componentType": 5125,
      "count": 31896,
      "type": "SCALAR"
    }
  ],
  "asset": {
    "extras": {
      "author": "Nahui Olin Nicolas (https://sketchfab.com/Nahui.Olin.Nicolas)",
      "license": "CC-BY-4.0 (http://creativecommons.org/licenses/by/4.0/)",
      "source": "https://sketchfab.com/3d-models/gato-de-barro-real-time-3d-bdd9345b130f4ff5936297cbcec73ccd",
      "title": "Gato de Barro Real-Time 3D"
    },
    "generator": "Sketchfab-12.68.0",
    "version": "2.0"
  },
  "bufferViews": [
    {
      "buffer": 0,
      "byteLength": 127584,
      "name": "floatBufferViews",
      "target": 34963
    },
    {
      "buffer": 0,
      "byteLength": 45616,
      "byteOffset": 127584,
      "byteStride": 8,
      "name": "floatBufferViews",
      "target": 34962
    },
    {
      "buffer": 0,
      "byteLength": 136848,
      "byteOffset": 173200,
      "byteStride": 12,
      "name": "floatBufferViews",
      "target": 34962
    }
  ],
  "buffers": [
    {
      "byteLength": 310048,
      "uri": "scene.bin"
    }
  ],
  "images": [
    {
      "uri": "textures/Gato_RT_mat_baseColor.jpeg"
    }
  ],
  "materials": [
    {
      "doubleSided": true,
      "name": "Gato_RT_mat",
      "pbrMetallicRoughness": {
        "baseColorTexture": {
          "index": 0
        },
        "metallicFactor": 0.1,
        "roughnessFactor": 0.45
      }
    }
  ],
  "meshes": [
    {
      "name": "Object_0",
      "primitives": [
        {
          "attributes": {
            "NORMAL": 1,
            "POSITION": 0,
            "TEXCOORD_0": 2
          },
          "indices": 3,
          "material": 0,
          "mode": 4
        }
      ]
    }
  ],
  "nodes": [
    {
      "children": [
        1
      ],
      "matrix": [
        1.0,
        0.0,
        0.0,
        0.0,
        0.0,
        2.220446049250313e-16,
        -1.0,
        0.0,
        0.0,
        1.0,
        2.220446049250313e-16,
        0.0,
        0.0,
        0.0,
        0.0,
        1.0
      ],
      "name": "Sketchfab_model"
    },
    {
      "children": [
        2
      ],
      "name": "root"
    },
    {
      "children": [
        3
      ],
      "matrix": [
        1.0,
        0.0,
        0.0,
        0.0,
        0.0,
        2.220446049250313e-16,
        1.0,
        0.0,
        0.0,
        -1.0,
        2.220446049250313e-16,
        0.0,
        0.0,
        0.0,
        0.0,
        1.0
      ],
      "name": "GLTF_SceneRootNode"
    },
    {
      "children": [
        4
      ],
      "matrix": [
        0.07529831677675247,
        0.0,
        0.0,
        0.0,
        0.0,
        0.00465014944388546,
        0.07515459147358658,
        0.0,
        0.0,
        -0.07515459147358658,
        0.00465014944388546,
        0.0,
        0.0,
        0.2516915202140808,
        -0.030875444412231445,
        1.0
      ],
      "name": "Gato_RT_2"
    },
    {
      "mesh": 0,
      "name": "Object_4"
    }
  ],
  "samplers": [
    {
      "magFilter": 9729,
      "minFilter": 9987,
      "wrapS": 10497,
      "wrapT": 10497
    }
  ],
  "scene": 0,
  "scenes": [
    {
      "name": "Sketchfab_Scene",
      "nodes": [
        0
      ]
    }
  ],
  "textures": [
    {
      "sampler": 0,
      "source": 0
    }
  ]
}
